<svg width="25" height="25" viewBox="0 0 25 25" fill="none" xmlns="http://www.w3.org/2000/svg">
<path d="M10.0378 14.8716C9.45399 14.2976 9.09863 13.5176 9.09863 12.6426C9.09863 10.8896 10.5322 9.47656 12.3111 9.47656C13.1913 9.47656 14.0015 9.82756 14.5752 10.4016" stroke="#DFE1E3" stroke-width="1.5" stroke-linecap="round" stroke-linejoin="round"/>
<path d="M15.4635 13.2036C15.228 14.4936 14.1964 15.5116 12.8877 15.7456" stroke="#DFE1E3" stroke-width="1.5" stroke-linecap="round" stroke-linejoin="round"/>
<path d="M6.8842 17.9771C5.27291 16.7311 3.90834 14.9111 2.91943 12.6421C3.91849 10.3631 5.2922 8.53311 6.91365 7.27711C8.52494 6.02111 10.384 5.33911 12.311 5.33911C14.2492 5.33911 16.1072 6.03111 17.7287 7.29611" stroke="#DFE1E3" stroke-width="1.5" stroke-linecap="round" stroke-linejoin="round"/>
<path d="M19.873 9.49561C20.5715 10.4096 21.1858 11.4646 21.7026 12.6416C19.7055 17.1986 16.1763 19.9436 12.311 19.9436C11.4348 19.9436 10.5708 19.8036 9.74023 19.5306" stroke="#DFE1E3" stroke-width="1.5" stroke-linecap="round" stroke-linejoin="round"/>
<path d="M20.3192 4.75439L4.30371 20.5284" stroke="#DFE1E3" stroke-width="1.5" stroke-linecap="round" stroke-linejoin="round"/>
</svg>
